<svg xmlns="http://www.w3.org/2000/svg" width="370" height="420" viewBox="0 0 370 420" role="img" aria-label="Hi! soy Valentín, Full Stack Developer">
<rect x="0.5" y="0.5" width="369" height="419" rx="10" fill="#0d1117" stroke="#30363d"/>
<circle cx="18" cy="17" r="5" fill="#ff5f56"/>
<circle cx="34" cy="17" r="5" fill="#ffbd2e"/>
<circle cx="50" cy="17" r="5" fill="#27c93f"/>
<text x="185.0" y="21" text-anchor="middle" font-family="ui-monospace, SFMono-Regular, 'SF Mono', Menlo, Consolas, 'Liberation Mono', monospace" font-size="11" fill="#8b949e">~/nogarr/hello.txt</text>
<text x="20" y="46" font-family="ui-monospace, SFMono-Regular, 'SF Mono', Menlo, Consolas, 'Liberation Mono', monospace" font-size="12" fill="#c9d1d9"><tspan fill="#39d353">$</tspan> cat hello.txt</text>
<g opacity="0"><rect x="46.2" y="131.2" width="7.1" height="7.1" rx="1.3" fill="#006d32"/><rect x="54.9" y="131.2" width="7.1" height="7.1" rx="1.3" fill="#006d32"/><rect x="63.6" y="131.2" width="7.1" height="7.1" rx="1.3" fill="#006d32"/><rect x="72.4" y="131.2" width="7.1" height="7.1" rx="1.3" fill="#006d32"/><rect x="133.4" y="131.2" width="7.1" height="7.1" rx="1.3" fill="#006d32"/><rect x="142.2" y="131.2" width="7.1" height="7.1" rx="1.3" fill="#006d32"/><rect x="150.9" y="131.2" width="7.1" height="7.1" rx="1.3" fill="#006d32"/><rect x="159.6" y="131.2" width="7.1" height="7.1" rx="1.3" fill="#006d32"/><rect x="203.3" y="131.2" width="7.1" height="7.1" rx="1.3" fill="#006d32"/><rect x="212.0" y="131.2" width="7.1" height="7.1" rx="1.3" fill="#39d353"/><rect x="220.7" y="131.2" width="7.1" height="7.1" rx="1.3" fill="#39d353"/><rect x="229.4" y="131.2" width="7.1" height="7.1" rx="1.3" fill="#26a641"/><rect x="281.8" y="131.2" width="7.1" height="7.1" rx="1.3" fill="#006d32"/><rect x="290.5" y="131.2" width="7.1" height="7.1" rx="1.3" fill="#006d32"/><rect x="299.2" y="131.2" width="7.1" height="7.1" rx="1.3" fill="#006d32"/><rect x="308.0" y="131.2" width="7.1" height="7.1" rx="1.3" fill="#006d32"/><animate attributeName="opacity" from="0" to="1" begin="0.82s" dur="0.7s" fill="freeze"/><animateTransform attributeName="transform" type="translate" from="0 -6" to="0 0" begin="0.82s" dur="0.7s" fill="freeze"/></g>
<g opacity="0"><rect x="46.2" y="139.9" width="7.1" height="7.1" rx="1.3" fill="#26a641"/><rect x="54.9" y="139.9" width="7.1" height="7.1" rx="1.3" fill="#39d353"/><rect x="63.6" y="139.9" width="7.1" height="7.1" rx="1.3" fill="#39d353"/><rect x="72.4" y="139.9" width="7.1" height="7.1" rx="1.3" fill="#26a641"/><rect x="133.4" y="139.9" width="7.1" height="7.1" rx="1.3" fill="#006d32"/><rect x="142.2" y="139.9" width="7.1" height="7.1" rx="1.3" fill="#39d353"/><rect x="150.9" y="139.9" width="7.1" height="7.1" rx="1.3" fill="#39d353"/><rect x="159.6" y="139.9" width="7.1" height="7.1" rx="1.3" fill="#39d353"/><rect x="203.3" y="139.9" width="7.1" height="7.1" rx="1.3" fill="#006d32"/><rect x="212.0" y="139.9" width="7.1" height="7.1" rx="1.3" fill="#39d353"/><rect x="220.7" y="139.9" width="7.1" height="7.1" rx="1.3" fill="#39d353"/><rect x="229.4" y="139.9" width="7.1" height="7.1" rx="1.3" fill="#26a641"/><rect x="281.8" y="139.9" width="7.1" height="7.1" rx="1.3" fill="#006d32"/><rect x="290.5" y="139.9" width="7.1" height="7.1" rx="1.3" fill="#39d353"/><rect x="299.2" y="139.9" width="7.1" height="7.1" rx="1.3" fill="#39d353"/><rect x="308.0" y="139.9" width="7.1" height="7.1" rx="1.3" fill="#26a641"/><animate attributeName="opacity" from="0" to="1" begin="1.04s" dur="0.7s" fill="freeze"/><animateTransform attributeName="transform" type="translate" from="0 -6" to="0 0" begin="1.04s" dur="0.7s" fill="freeze"/></g>
<g opacity="0"><rect x="46.2" y="148.6" width="7.1" height="7.1" rx="1.3" fill="#26a641"/><rect x="54.9" y="148.6" width="7.1" height="7.1" rx="1.3" fill="#39d353"/><rect x="63.6" y="148.6" width="7.1" height="7.1" rx="1.3" fill="#39d353"/><rect x="72.4" y="148.6" width="7.1" height="7.1" rx="1.3" fill="#26a641"/><rect x="133.4" y="148.6" width="7.1" height="7.1" rx="1.3" fill="#006d32"/><rect x="142.2" y="148.6" width="7.1" height="7.1" rx="1.3" fill="#39d353"/><rect x="150.9" y="148.6" width="7.1" height="7.1" rx="1.3" fill="#39d353"/><rect x="159.6" y="148.6" width="7.1" height="7.1" rx="1.3" fill="#39d353"/><rect x="203.3" y="148.6" width="7.1" height="7.1" rx="1.3" fill="#006d32"/><rect x="212.0" y="148.6" width="7.1" height="7.1" rx="1.3" fill="#006d32"/><rect x="220.7" y="148.6" width="7.1" height="7.1" rx="1.3" fill="#006d32"/><rect x="229.4" y="148.6" width="7.1" height="7.1" rx="1.3" fill="#006d32"/><rect x="281.8" y="148.6" width="7.1" height="7.1" rx="1.3" fill="#006d32"/><rect x="290.5" y="148.6" width="7.1" height="7.1" rx="1.3" fill="#39d353"/><rect x="299.2" y="148.6" width="7.1" height="7.1" rx="1.3" fill="#39d353"/><rect x="308.0" y="148.6" width="7.1" height="7.1" rx="1.3" fill="#26a641"/><animate attributeName="opacity" from="0" to="1" begin="1.26s" dur="0.7s" fill="freeze"/><animateTransform attributeName="transform" type="translate" from="0 -6" to="0 0" begin="1.26s" dur="0.7s" fill="freeze"/></g>
<g opacity="0"><rect x="46.2" y="157.4" width="7.1" height="7.1" rx="1.3" fill="#26a641"/><rect x="54.9" y="157.4" width="7.1" height="7.1" rx="1.3" fill="#39d353"/><rect x="63.6" y="157.4" width="7.1" height="7.1" rx="1.3" fill="#39d353"/><rect x="72.4" y="157.4" width="7.1" height="7.1" rx="1.3" fill="#26a641"/><rect x="133.4" y="157.4" width="7.1" height="7.1" rx="1.3" fill="#006d32"/><rect x="142.2" y="157.4" width="7.1" height="7.1" rx="1.3" fill="#39d353"/><rect x="150.9" y="157.4" width="7.1" height="7.1" rx="1.3" fill="#39d353"/><rect x="159.6" y="157.4" width="7.1" height="7.1" rx="1.3" fill="#39d353"/><rect x="281.8" y="157.4" width="7.1" height="7.1" rx="1.3" fill="#006d32"/><rect x="290.5" y="157.4" width="7.1" height="7.1" rx="1.3" fill="#39d353"/><rect x="299.2" y="157.4" width="7.1" height="7.1" rx="1.3" fill="#39d353"/><rect x="308.0" y="157.4" width="7.1" height="7.1" rx="1.3" fill="#26a641"/><animate attributeName="opacity" from="0" to="1" begin="1.48s" dur="0.7s" fill="freeze"/><animateTransform attributeName="transform" type="translate" from="0 -6" to="0 0" begin="1.48s" dur="0.7s" fill="freeze"/></g>
<g opacity="0"><rect x="46.2" y="166.1" width="7.1" height="7.1" rx="1.3" fill="#26a641"/><rect x="54.9" y="166.1" width="7.1" height="7.1" rx="1.3" fill="#39d353"/><rect x="63.6" y="166.1" width="7.1" height="7.1" rx="1.3" fill="#39d353"/><rect x="72.4" y="166.1" width="7.1" height="7.1" rx="1.3" fill="#26a641"/><rect x="133.4" y="166.1" width="7.1" height="7.1" rx="1.3" fill="#006d32"/><rect x="142.2" y="166.1" width="7.1" height="7.1" rx="1.3" fill="#39d353"/><rect x="150.9" y="166.1" width="7.1" height="7.1" rx="1.3" fill="#39d353"/><rect x="159.6" y="166.1" width="7.1" height="7.1" rx="1.3" fill="#39d353"/><rect x="203.3" y="166.1" width="7.1" height="7.1" rx="1.3" fill="#006d32"/><rect x="212.0" y="166.1" width="7.1" height="7.1" rx="1.3" fill="#006d32"/><rect x="220.7" y="166.1" width="7.1" height="7.1" rx="1.3" fill="#006d32"/><rect x="229.4" y="166.1" width="7.1" height="7.1" rx="1.3" fill="#006d32"/><rect x="281.8" y="166.1" width="7.1" height="7.1" rx="1.3" fill="#006d32"/><rect x="290.5" y="166.1" width="7.1" height="7.1" rx="1.3" fill="#39d353"/><rect x="299.2" y="166.1" width="7.1" height="7.1" rx="1.3" fill="#39d353"/><rect x="308.0" y="166.1" width="7.1" height="7.1" rx="1.3" fill="#26a641"/><animate attributeName="opacity" from="0" to="1" begin="1.70s" dur="0.7s" fill="freeze"/><animateTransform attributeName="transform" type="translate" from="0 -6" to="0 0" begin="1.70s" dur="0.7s" fill="freeze"/></g>
<g opacity="0"><rect x="46.2" y="174.8" width="7.1" height="7.1" rx="1.3" fill="#26a641"/><rect x="54.9" y="174.8" width="7.1" height="7.1" rx="1.3" fill="#39d353"/><rect x="63.6" y="174.8" width="7.1" height="7.1" rx="1.3" fill="#39d353"/><rect x="72.4" y="174.8" width="7.1" height="7.1" rx="1.3" fill="#26a641"/><rect x="133.4" y="174.8" width="7.1" height="7.1" rx="1.3" fill="#006d32"/><rect x="142.2" y="174.8" width="7.1" height="7.1" rx="1.3" fill="#39d353"/><rect x="150.9" y="174.8" width="7.1" height="7.1" rx="1.3" fill="#39d353"/><rect x="159.6" y="174.8" width="7.1" height="7.1" rx="1.3" fill="#39d353"/><rect x="203.3" y="174.8" width="7.1" height="7.1" rx="1.3" fill="#006d32"/><rect x="212.0" y="174.8" width="7.1" height="7.1" rx="1.3" fill="#39d353"/><rect x="220.7" y="174.8" width="7.1" height="7.1" rx="1.3" fill="#39d353"/><rect x="229.4" y="174.8" width="7.1" height="7.1" rx="1.3" fill="#26a641"/><rect x="281.8" y="174.8" width="7.1" height="7.1" rx="1.3" fill="#006d32"/><rect x="290.5" y="174.8" width="7.1" height="7.1" rx="1.3" fill="#39d353"/><rect x="299.2" y="174.8" width="7.1" height="7.1" rx="1.3" fill="#39d353"/><rect x="308.0" y="174.8" width="7.1" height="7.1" rx="1.3" fill="#26a641"/><animate attributeName="opacity" from="0" to="1" begin="1.92s" dur="0.7s" fill="freeze"/><animateTransform attributeName="transform" type="translate" from="0 -6" to="0 0" begin="1.92s" dur="0.7s" fill="freeze"/></g>
<g opacity="0"><rect x="46.2" y="183.5" width="7.1" height="7.1" rx="1.3" fill="#26a641"/><rect x="54.9" y="183.5" width="7.1" height="7.1" rx="1.3" fill="#39d353"/><rect x="63.6" y="183.5" width="7.1" height="7.1" rx="1.3" fill="#39d353"/><rect x="72.4" y="183.5" width="7.1" height="7.1" rx="1.3" fill="#26a641"/><rect x="81.1" y="183.5" width="7.1" height="7.1" rx="1.3" fill="#006d32"/><rect x="89.8" y="183.5" width="7.1" height="7.1" rx="1.3" fill="#006d32"/><rect x="98.5" y="183.5" width="7.1" height="7.1" rx="1.3" fill="#006d32"/><rect x="107.3" y="183.5" width="7.1" height="7.1" rx="1.3" fill="#006d32"/><rect x="116.0" y="183.5" width="7.1" height="7.1" rx="1.3" fill="#006d32"/><rect x="124.7" y="183.5" width="7.1" height="7.1" rx="1.3" fill="#006d32"/><rect x="133.4" y="183.5" width="7.1" height="7.1" rx="1.3" fill="#26a641"/><rect x="142.2" y="183.5" width="7.1" height="7.1" rx="1.3" fill="#39d353"/><rect x="150.9" y="183.5" width="7.1" height="7.1" rx="1.3" fill="#39d353"/><rect x="159.6" y="183.5" width="7.1" height="7.1" rx="1.3" fill="#39d353"/><rect x="203.3" y="183.5" width="7.1" height="7.1" rx="1.3" fill="#006d32"/><rect x="212.0" y="183.5" width="7.1" height="7.1" rx="1.3" fill="#39d353"/><rect x="220.7" y="183.5" width="7.1" height="7.1" rx="1.3" fill="#39d353"/><rect x="229.4" y="183.5" width="7.1" height="7.1" rx="1.3" fill="#26a641"/><rect x="281.8" y="183.5" width="7.1" height="7.1" rx="1.3" fill="#006d32"/><rect x="290.5" y="183.5" width="7.1" height="7.1" rx="1.3" fill="#39d353"/><rect x="299.2" y="183.5" width="7.1" height="7.1" rx="1.3" fill="#39d353"/><rect x="308.0" y="183.5" width="7.1" height="7.1" rx="1.3" fill="#26a641"/><animate attributeName="opacity" from="0" to="1" begin="2.14s" dur="0.7s" fill="freeze"/><animateTransform attributeName="transform" type="translate" from="0 -6" to="0 0" begin="2.14s" dur="0.7s" fill="freeze"/></g>
<g opacity="0"><rect x="46.2" y="192.3" width="7.1" height="7.1" rx="1.3" fill="#26a641"/><rect x="54.9" y="192.3" width="7.1" height="7.1" rx="1.3" fill="#39d353"/><rect x="63.6" y="192.3" width="7.1" height="7.1" rx="1.3" fill="#39d353"/><rect x="72.4" y="192.3" width="7.1" height="7.1" rx="1.3" fill="#39d353"/><rect x="81.1" y="192.3" width="7.1" height="7.1" rx="1.3" fill="#39d353"/><rect x="89.8" y="192.3" width="7.1" height="7.1" rx="1.3" fill="#39d353"/><rect x="98.5" y="192.3" width="7.1" height="7.1" rx="1.3" fill="#39d353"/><rect x="107.3" y="192.3" width="7.1" height="7.1" rx="1.3" fill="#39d353"/><rect x="116.0" y="192.3" width="7.1" height="7.1" rx="1.3" fill="#39d353"/><rect x="124.7" y="192.3" width="7.1" height="7.1" rx="1.3" fill="#39d353"/><rect x="133.4" y="192.3" width="7.1" height="7.1" rx="1.3" fill="#39d353"/><rect x="142.2" y="192.3" width="7.1" height="7.1" rx="1.3" fill="#39d353"/><rect x="150.9" y="192.3" width="7.1" height="7.1" rx="1.3" fill="#39d353"/><rect x="159.6" y="192.3" width="7.1" height="7.1" rx="1.3" fill="#39d353"/><rect x="203.3" y="192.3" width="7.1" height="7.1" rx="1.3" fill="#006d32"/><rect x="212.0" y="192.3" width="7.1" height="7.1" rx="1.3" fill="#39d353"/><rect x="220.7" y="192.3" width="7.1" height="7.1" rx="1.3" fill="#39d353"/><rect x="229.4" y="192.3" width="7.1" height="7.1" rx="1.3" fill="#26a641"/><rect x="281.8" y="192.3" width="7.1" height="7.1" rx="1.3" fill="#006d32"/><rect x="290.5" y="192.3" width="7.1" height="7.1" rx="1.3" fill="#39d353"/><rect x="299.2" y="192.3" width="7.1" height="7.1" rx="1.3" fill="#39d353"/><rect x="308.0" y="192.3" width="7.1" height="7.1" rx="1.3" fill="#26a641"/><animate attributeName="opacity" from="0" to="1" begin="2.36s" dur="0.7s" fill="freeze"/><animateTransform attributeName="transform" type="translate" from="0 -6" to="0 0" begin="2.36s" dur="0.7s" fill="freeze"/></g>
<g opacity="0"><rect x="46.2" y="201.0" width="7.1" height="7.1" rx="1.3" fill="#26a641"/><rect x="54.9" y="201.0" width="7.1" height="7.1" rx="1.3" fill="#39d353"/><rect x="63.6" y="201.0" width="7.1" height="7.1" rx="1.3" fill="#39d353"/><rect x="72.4" y="201.0" width="7.1" height="7.1" rx="1.3" fill="#39d353"/><rect x="81.1" y="201.0" width="7.1" height="7.1" rx="1.3" fill="#39d353"/><rect x="89.8" y="201.0" width="7.1" height="7.1" rx="1.3" fill="#39d353"/><rect x="98.5" y="201.0" width="7.1" height="7.1" rx="1.3" fill="#39d353"/><rect x="107.3" y="201.0" width="7.1" height="7.1" rx="1.3" fill="#39d353"/><rect x="116.0" y="201.0" width="7.1" height="7.1" rx="1.3" fill="#39d353"/><rect x="124.7" y="201.0" width="7.1" height="7.1" rx="1.3" fill="#39d353"/><rect x="133.4" y="201.0" width="7.1" height="7.1" rx="1.3" fill="#39d353"/><rect x="142.2" y="201.0" width="7.1" height="7.1" rx="1.3" fill="#39d353"/><rect x="150.9" y="201.0" width="7.1" height="7.1" rx="1.3" fill="#39d353"/><rect x="159.6" y="201.0" width="7.1" height="7.1" rx="1.3" fill="#39d353"/><rect x="203.3" y="201.0" width="7.1" height="7.1" rx="1.3" fill="#006d32"/><rect x="212.0" y="201.0" width="7.1" height="7.1" rx="1.3" fill="#39d353"/><rect x="220.7" y="201.0" width="7.1" height="7.1" rx="1.3" fill="#39d353"/><rect x="229.4" y="201.0" width="7.1" height="7.1" rx="1.3" fill="#26a641"/><rect x="281.8" y="201.0" width="7.1" height="7.1" rx="1.3" fill="#006d32"/><rect x="290.5" y="201.0" width="7.1" height="7.1" rx="1.3" fill="#39d353"/><rect x="299.2" y="201.0" width="7.1" height="7.1" rx="1.3" fill="#39d353"/><rect x="308.0" y="201.0" width="7.1" height="7.1" rx="1.3" fill="#006d32"/><animate attributeName="opacity" from="0" to="1" begin="2.58s" dur="0.7s" fill="freeze"/><animateTransform attributeName="transform" type="translate" from="0 -6" to="0 0" begin="2.58s" dur="0.7s" fill="freeze"/></g>
<g opacity="0"><rect x="46.2" y="209.7" width="7.1" height="7.1" rx="1.3" fill="#26a641"/><rect x="54.9" y="209.7" width="7.1" height="7.1" rx="1.3" fill="#39d353"/><rect x="63.6" y="209.7" width="7.1" height="7.1" rx="1.3" fill="#39d353"/><rect x="72.4" y="209.7" width="7.1" height="7.1" rx="1.3" fill="#26a641"/><rect x="81.1" y="209.7" width="7.1" height="7.1" rx="1.3" fill="#006d32"/><rect x="89.8" y="209.7" width="7.1" height="7.1" rx="1.3" fill="#006d32"/><rect x="98.5" y="209.7" width="7.1" height="7.1" rx="1.3" fill="#006d32"/><rect x="107.3" y="209.7" width="7.1" height="7.1" rx="1.3" fill="#006d32"/><rect x="116.0" y="209.7" width="7.1" height="7.1" rx="1.3" fill="#006d32"/><rect x="124.7" y="209.7" width="7.1" height="7.1" rx="1.3" fill="#006d32"/><rect x="133.4" y="209.7" width="7.1" height="7.1" rx="1.3" fill="#26a641"/><rect x="142.2" y="209.7" width="7.1" height="7.1" rx="1.3" fill="#39d353"/><rect x="150.9" y="209.7" width="7.1" height="7.1" rx="1.3" fill="#39d353"/><rect x="159.6" y="209.7" width="7.1" height="7.1" rx="1.3" fill="#39d353"/><rect x="203.3" y="209.7" width="7.1" height="7.1" rx="1.3" fill="#006d32"/><rect x="212.0" y="209.7" width="7.1" height="7.1" rx="1.3" fill="#39d353"/><rect x="220.7" y="209.7" width="7.1" height="7.1" rx="1.3" fill="#39d353"/><rect x="229.4" y="209.7" width="7.1" height="7.1" rx="1.3" fill="#26a641"/><rect x="290.5" y="209.7" width="7.1" height="7.1" rx="1.3" fill="#39d353"/><rect x="299.2" y="209.7" width="7.1" height="7.1" rx="1.3" fill="#39d353"/><rect x="308.0" y="209.7" width="7.1" height="7.1" rx="1.3" fill="#006d32"/><animate attributeName="opacity" from="0" to="1" begin="2.80s" dur="0.7s" fill="freeze"/><animateTransform attributeName="transform" type="translate" from="0 -6" to="0 0" begin="2.80s" dur="0.7s" fill="freeze"/></g>
<g opacity="0"><rect x="46.2" y="218.5" width="7.1" height="7.1" rx="1.3" fill="#26a641"/><rect x="54.9" y="218.5" width="7.1" height="7.1" rx="1.3" fill="#39d353"/><rect x="63.6" y="218.5" width="7.1" height="7.1" rx="1.3" fill="#39d353"/><rect x="72.4" y="218.5" width="7.1" height="7.1" rx="1.3" fill="#26a641"/><rect x="133.4" y="218.5" width="7.1" height="7.1" rx="1.3" fill="#006d32"/><rect x="142.2" y="218.5" width="7.1" height="7.1" rx="1.3" fill="#39d353"/><rect x="150.9" y="218.5" width="7.1" height="7.1" rx="1.3" fill="#39d353"/><rect x="159.6" y="218.5" width="7.1" height="7.1" rx="1.3" fill="#39d353"/><rect x="203.3" y="218.5" width="7.1" height="7.1" rx="1.3" fill="#006d32"/><rect x="212.0" y="218.5" width="7.1" height="7.1" rx="1.3" fill="#39d353"/><rect x="220.7" y="218.5" width="7.1" height="7.1" rx="1.3" fill="#39d353"/><rect x="229.4" y="218.5" width="7.1" height="7.1" rx="1.3" fill="#26a641"/><rect x="290.5" y="218.5" width="7.1" height="7.1" rx="1.3" fill="#26a641"/><rect x="299.2" y="218.5" width="7.1" height="7.1" rx="1.3" fill="#26a641"/><rect x="308.0" y="218.5" width="7.1" height="7.1" rx="1.3" fill="#006d32"/><animate attributeName="opacity" from="0" to="1" begin="3.02s" dur="0.7s" fill="freeze"/><animateTransform attributeName="transform" type="translate" from="0 -6" to="0 0" begin="3.02s" dur="0.7s" fill="freeze"/></g>
<g opacity="0"><rect x="46.2" y="227.2" width="7.1" height="7.1" rx="1.3" fill="#26a641"/><rect x="54.9" y="227.2" width="7.1" height="7.1" rx="1.3" fill="#39d353"/><rect x="63.6" y="227.2" width="7.1" height="7.1" rx="1.3" fill="#39d353"/><rect x="72.4" y="227.2" width="7.1" height="7.1" rx="1.3" fill="#26a641"/><rect x="133.4" y="227.2" width="7.1" height="7.1" rx="1.3" fill="#006d32"/><rect x="142.2" y="227.2" width="7.1" height="7.1" rx="1.3" fill="#39d353"/><rect x="150.9" y="227.2" width="7.1" height="7.1" rx="1.3" fill="#39d353"/><rect x="159.6" y="227.2" width="7.1" height="7.1" rx="1.3" fill="#39d353"/><rect x="203.3" y="227.2" width="7.1" height="7.1" rx="1.3" fill="#006d32"/><rect x="212.0" y="227.2" width="7.1" height="7.1" rx="1.3" fill="#39d353"/><rect x="220.7" y="227.2" width="7.1" height="7.1" rx="1.3" fill="#39d353"/><rect x="229.4" y="227.2" width="7.1" height="7.1" rx="1.3" fill="#26a641"/><animate attributeName="opacity" from="0" to="1" begin="3.24s" dur="0.7s" fill="freeze"/><animateTransform attributeName="transform" type="translate" from="0 -6" to="0 0" begin="3.24s" dur="0.7s" fill="freeze"/></g>
<g opacity="0"><rect x="46.2" y="235.9" width="7.1" height="7.1" rx="1.3" fill="#26a641"/><rect x="54.9" y="235.9" width="7.1" height="7.1" rx="1.3" fill="#39d353"/><rect x="63.6" y="235.9" width="7.1" height="7.1" rx="1.3" fill="#39d353"/><rect x="72.4" y="235.9" width="7.1" height="7.1" rx="1.3" fill="#26a641"/><rect x="133.4" y="235.9" width="7.1" height="7.1" rx="1.3" fill="#006d32"/><rect x="142.2" y="235.9" width="7.1" height="7.1" rx="1.3" fill="#39d353"/><rect x="150.9" y="235.9" width="7.1" height="7.1" rx="1.3" fill="#39d353"/><rect x="159.6" y="235.9" width="7.1" height="7.1" rx="1.3" fill="#39d353"/><rect x="203.3" y="235.9" width="7.1" height="7.1" rx="1.3" fill="#006d32"/><rect x="212.0" y="235.9" width="7.1" height="7.1" rx="1.3" fill="#39d353"/><rect x="220.7" y="235.9" width="7.1" height="7.1" rx="1.3" fill="#39d353"/><rect x="229.4" y="235.9" width="7.1" height="7.1" rx="1.3" fill="#26a641"/><rect x="290.5" y="235.9" width="7.1" height="7.1" rx="1.3" fill="#006d32"/><rect x="299.2" y="235.9" width="7.1" height="7.1" rx="1.3" fill="#006d32"/><rect x="308.0" y="235.9" width="7.1" height="7.1" rx="1.3" fill="#006d32"/><animate attributeName="opacity" from="0" to="1" begin="3.46s" dur="0.7s" fill="freeze"/><animateTransform attributeName="transform" type="translate" from="0 -6" to="0 0" begin="3.46s" dur="0.7s" fill="freeze"/></g>
<g opacity="0"><rect x="46.2" y="244.6" width="7.1" height="7.1" rx="1.3" fill="#26a641"/><rect x="54.9" y="244.6" width="7.1" height="7.1" rx="1.3" fill="#39d353"/><rect x="63.6" y="244.6" width="7.1" height="7.1" rx="1.3" fill="#39d353"/><rect x="72.4" y="244.6" width="7.1" height="7.1" rx="1.3" fill="#26a641"/><rect x="133.4" y="244.6" width="7.1" height="7.1" rx="1.3" fill="#006d32"/><rect x="142.2" y="244.6" width="7.1" height="7.1" rx="1.3" fill="#39d353"/><rect x="150.9" y="244.6" width="7.1" height="7.1" rx="1.3" fill="#39d353"/><rect x="159.6" y="244.6" width="7.1" height="7.1" rx="1.3" fill="#39d353"/><rect x="203.3" y="244.6" width="7.1" height="7.1" rx="1.3" fill="#006d32"/><rect x="212.0" y="244.6" width="7.1" height="7.1" rx="1.3" fill="#39d353"/><rect x="220.7" y="244.6" width="7.1" height="7.1" rx="1.3" fill="#39d353"/><rect x="229.4" y="244.6" width="7.1" height="7.1" rx="1.3" fill="#26a641"/><rect x="281.8" y="244.6" width="7.1" height="7.1" rx="1.3" fill="#006d32"/><rect x="290.5" y="244.6" width="7.1" height="7.1" rx="1.3" fill="#39d353"/><rect x="299.2" y="244.6" width="7.1" height="7.1" rx="1.3" fill="#39d353"/><rect x="308.0" y="244.6" width="7.1" height="7.1" rx="1.3" fill="#26a641"/><animate attributeName="opacity" from="0" to="1" begin="3.68s" dur="0.7s" fill="freeze"/><animateTransform attributeName="transform" type="translate" from="0 -6" to="0 0" begin="3.68s" dur="0.7s" fill="freeze"/></g>
<g opacity="0"><rect x="46.2" y="253.4" width="7.1" height="7.1" rx="1.3" fill="#26a641"/><rect x="54.9" y="253.4" width="7.1" height="7.1" rx="1.3" fill="#39d353"/><rect x="63.6" y="253.4" width="7.1" height="7.1" rx="1.3" fill="#39d353"/><rect x="72.4" y="253.4" width="7.1" height="7.1" rx="1.3" fill="#26a641"/><rect x="133.4" y="253.4" width="7.1" height="7.1" rx="1.3" fill="#006d32"/><rect x="142.2" y="253.4" width="7.1" height="7.1" rx="1.3" fill="#39d353"/><rect x="150.9" y="253.4" width="7.1" height="7.1" rx="1.3" fill="#39d353"/><rect x="159.6" y="253.4" width="7.1" height="7.1" rx="1.3" fill="#39d353"/><rect x="203.3" y="253.4" width="7.1" height="7.1" rx="1.3" fill="#006d32"/><rect x="212.0" y="253.4" width="7.1" height="7.1" rx="1.3" fill="#39d353"/><rect x="220.7" y="253.4" width="7.1" height="7.1" rx="1.3" fill="#39d353"/><rect x="229.4" y="253.4" width="7.1" height="7.1" rx="1.3" fill="#26a641"/><rect x="281.8" y="253.4" width="7.1" height="7.1" rx="1.3" fill="#006d32"/><rect x="290.5" y="253.4" width="7.1" height="7.1" rx="1.3" fill="#39d353"/><rect x="299.2" y="253.4" width="7.1" height="7.1" rx="1.3" fill="#39d353"/><rect x="308.0" y="253.4" width="7.1" height="7.1" rx="1.3" fill="#26a641"/><animate attributeName="opacity" from="0" to="1" begin="3.90s" dur="0.7s" fill="freeze"/><animateTransform attributeName="transform" type="translate" from="0 -6" to="0 0" begin="3.90s" dur="0.7s" fill="freeze"/></g>
<g opacity="0"><rect x="46.2" y="262.1" width="7.1" height="7.1" rx="1.3" fill="#26a641"/><rect x="54.9" y="262.1" width="7.1" height="7.1" rx="1.3" fill="#39d353"/><rect x="63.6" y="262.1" width="7.1" height="7.1" rx="1.3" fill="#39d353"/><rect x="72.4" y="262.1" width="7.1" height="7.1" rx="1.3" fill="#26a641"/><rect x="133.4" y="262.1" width="7.1" height="7.1" rx="1.3" fill="#006d32"/><rect x="142.2" y="262.1" width="7.1" height="7.1" rx="1.3" fill="#39d353"/><rect x="150.9" y="262.1" width="7.1" height="7.1" rx="1.3" fill="#39d353"/><rect x="159.6" y="262.1" width="7.1" height="7.1" rx="1.3" fill="#26a641"/><rect x="203.3" y="262.1" width="7.1" height="7.1" rx="1.3" fill="#006d32"/><rect x="212.0" y="262.1" width="7.1" height="7.1" rx="1.3" fill="#39d353"/><rect x="220.7" y="262.1" width="7.1" height="7.1" rx="1.3" fill="#39d353"/><rect x="229.4" y="262.1" width="7.1" height="7.1" rx="1.3" fill="#26a641"/><rect x="281.8" y="262.1" width="7.1" height="7.1" rx="1.3" fill="#006d32"/><rect x="290.5" y="262.1" width="7.1" height="7.1" rx="1.3" fill="#39d353"/><rect x="299.2" y="262.1" width="7.1" height="7.1" rx="1.3" fill="#39d353"/><rect x="308.0" y="262.1" width="7.1" height="7.1" rx="1.3" fill="#26a641"/><animate attributeName="opacity" from="0" to="1" begin="4.12s" dur="0.7s" fill="freeze"/><animateTransform attributeName="transform" type="translate" from="0 -6" to="0 0" begin="4.12s" dur="0.7s" fill="freeze"/></g>
<text x="185.0" y="313.5" text-anchor="middle" font-family="ui-monospace, SFMono-Regular, 'SF Mono', Menlo, Consolas, 'Liberation Mono', monospace" font-size="13" fill="#c9d1d9" opacity="0">soy Valentín, Full Stack Developer<animate attributeName="opacity" from="0" to="1" begin="5.26s" dur="1s" fill="freeze"/></text>
<text x="20" y="402" font-family="ui-monospace, SFMono-Regular, 'SF Mono', Menlo, Consolas, 'Liberation Mono', monospace" font-size="12" fill="#39d353" opacity="0">$<animate attributeName="opacity" from="0" to="1" begin="6.36s" dur="0.3s" fill="freeze"/></text>
<rect x="32" y="391" width="7" height="13" fill="#39d353" opacity="0"><animate attributeName="opacity" values="0;1;0" dur="1.1s" begin="6.36s" repeatCount="indefinite"/></rect>
</svg>